<?xml version="1.0" encoding="UTF-8" standalone="no"?>
<svg
   xmlns:dc="http://purl.org/dc/elements/1.1/"
   xmlns:cc="http://creativecommons.org/ns#"
   xmlns:rdf="http://www.w3.org/1999/02/22-rdf-syntax-ns#"
   xmlns:svg="http://www.w3.org/2000/svg"
   xmlns="http://www.w3.org/2000/svg"
   xmlns:sodipodi="http://sodipodi.sourceforge.net/DTD/sodipodi-0.dtd"
   xmlns:inkscape="http://www.inkscape.org/namespaces/inkscape"
   width="210mm"
   height="297mm"
   viewBox="0 0 210 297"
   version="1.1"
   id="svg8"
   inkscape:version="1.0.1 (3bc2e813f5, 2020-09-07)"
   sodipodi:docname="pump.svg">
  <defs
     id="defs2" />
  <sodipodi:namedview
     id="base"
     pagecolor="#ffffff"
     bordercolor="#666666"
     borderopacity="1.0"
     inkscape:pageopacity="0.0"
     inkscape:pageshadow="2"
     inkscape:zoom="3.799454"
     inkscape:cx="237.2539"
     inkscape:cy="111.66943"
     inkscape:document-units="mm"
     inkscape:current-layer="layer1"
     inkscape:document-rotation="0"
     showgrid="false"
     inkscape:window-width="1366"
     inkscape:window-height="715"
     inkscape:window-x="-8"
     inkscape:window-y="-8"
     inkscape:window-maximized="1" />
  <metadata
     id="metadata5">
    <rdf:RDF>
      <cc:Work
         rdf:about="">
        <dc:format>image/svg+xml</dc:format>
        <dc:type
           rdf:resource="http://purl.org/dc/dcmitype/StillImage" />
        <dc:title></dc:title>
      </cc:Work>
    </rdf:RDF>
  </metadata>
  <g
     inkscape:label="Layer 1"
     inkscape:groupmode="layer"
     id="layer1">
    <path
       id="rect833"
       style="fill:#ff0000;stroke:#000000;stroke-width:0.999999;stroke-miterlimit:4;stroke-dasharray:none"
       d="M 129.53125 61.042969 L 129.53125 68.957031 L 134.08789 68.957031 L 134.08789 78.695312 L 129.53125 78.695312 L 129.53125 215.48242 L 134.08789 215.48242 L 134.08789 225.2207 L 129.53125 225.2207 L 129.53125 233.75195 L 181.64062 233.75195 L 181.64062 225.2207 L 177.08398 225.2207 L 177.08398 215.48242 L 181.64062 215.48242 L 181.64062 78.695312 L 177.08398 78.695312 L 177.08398 68.957031 L 181.64062 68.957031 L 181.64062 61.042969 L 129.53125 61.042969 z "
       transform="scale(0.26458333)" />
    <rect
       style="fill:#ff0000;stroke:#000000;stroke-width:0.210536;stroke-miterlimit:4;stroke-dasharray:none"
       id="rect835"
       width="11.375995"
       height="2.5765762"
       x="35.477417"
       y="18.244944" />
    <rect
       style="fill:#ff0000;stroke:#000000;stroke-width:0.210536;stroke-miterlimit:4;stroke-dasharray:none"
       id="rect835-4"
       width="11.375996"
       height="2.5765762"
       x="35.477448"
       y="57.012981" />
    <path
       id="rect833-4"
       style="fill:#ff0000;stroke:#000000;stroke-width:0.999999;stroke-miterlimit:4;stroke-dasharray:none"
       d="M 245.03711 44.191406 L 245.03711 52.105469 L 249.59375 52.105469 L 249.59375 61.84375 L 245.03711 61.84375 L 245.03711 95.015625 L 297.14648 95.015625 L 297.14648 61.84375 L 292.58984 61.84375 L 292.58984 52.105469 L 297.14648 52.105469 L 297.14648 44.191406 L 245.03711 44.191406 z M 245.03711 147.125 L 245.03711 198.63086 L 249.59375 198.63086 L 249.59375 208.36914 L 245.03711 208.36914 L 245.03711 216.90039 L 297.14648 216.90039 L 297.14648 208.36914 L 292.58984 208.36914 L 292.58984 198.63086 L 297.14648 198.63086 L 297.14648 147.125 L 245.03711 147.125 z "
       transform="scale(0.26458333)" />
    <rect
       style="fill:#ff0000;stroke:#000000;stroke-width:0.210536;stroke-miterlimit:4;stroke-dasharray:none"
       id="rect835-1"
       width="11.375996"
       height="2.5765762"
       x="66.038284"
       y="13.786083" />
    <rect
       style="fill:#ff0000;stroke:#000000;stroke-width:0.210536;stroke-miterlimit:4;stroke-dasharray:none"
       id="rect835-4-5"
       width="11.375996"
       height="2.5765762"
       x="66.038315"
       y="52.554119" />
  </g>
</svg>
